<?xml version="1.0" standalone="no"?>
<!DOCTYPE svg PUBLIC "-//W3C//DTD SVG 20010904//EN"
 "http://www.w3.org/TR/2001/REC-SVG-20010904/DTD/svg10.dtd">
<svg version="1.0" xmlns="http://www.w3.org/2000/svg"
 width="1080.000000pt" height="1080.000000pt" viewBox="0 0 1080.000000 1080.000000"
 preserveAspectRatio="xMidYMid meet">
<metadata>
Created by potrace 1.14, written by Peter Selinger 2001-2017
</metadata>
<g transform="translate(0.000000,1080.000000) scale(0.100000,-0.100000)"
fill="#000000" stroke="none">
<path d="M5034 10113 c-12 -40 -18 -89 -19 -158 0 -196 18 -270 180 -735 20
-58 40 -114 45 -125 15 -33 65 -219 75 -280 18 -106 25 -419 12 -535 -26 -228
-123 -379 -270 -422 -68 -19 -148 -14 -196 13 -95 53 -157 212 -165 422 -1 20
-6 37 -11 38 -17 1 -122 -218 -145 -303 -59 -218 -17 -450 186 -1033 20 -60
31 -99 60 -230 10 -42 11 -255 3 -302 -5 -26 -11 -59 -14 -73 -14 -80 -79
-218 -140 -300 -140 -188 -345 -286 -444 -212 -36 27 -67 84 -82 155 -21 99
-16 318 11 492 10 68 19 125 30 205 24 169 -2 428 -55 545 -7 17 -20 47 -29
68 -41 100 -156 239 -263 318 -99 74 -233 140 -326 163 -26 6 -25 4 23 -56 60
-75 119 -186 155 -293 15 -44 28 -86 30 -95 2 -8 8 -33 13 -55 27 -102 33
-288 15 -422 -47 -346 -192 -642 -482 -977 -211 -244 -373 -453 -484 -623 -57
-88 -80 -126 -139 -228 -55 -95 -151 -306 -187 -410 -65 -191 -68 -223 -70
-745 -1 -256 -4 -905 -7 -1444 -5 -1065 -5 -1067 51 -1221 26 -72 98 -204 138
-253 52 -64 166 -168 227 -208 96 -62 223 -116 307 -130 15 -2 35 -8 43 -11 8
-4 1031 -8 2273 -8 2368 -2 2314 -3 2457 40 79 24 222 100 288 154 189 152
311 358 348 591 13 81 11 2947 -2 3020 -18 101 -26 130 -35 136 -5 3 -9 12 -9
21 0 30 -84 189 -190 358 -237 378 -305 516 -361 725 -82 307 -5 635 210 895
27 32 37 51 29 56 -6 4 -16 6 -22 4 -6 -2 -36 -7 -66 -10 -251 -25 -511 -186
-673 -416 -62 -88 -132 -236 -158 -334 -24 -93 -33 -259 -18 -325 28 -120 32
-147 31 -226 0 -108 -43 -192 -114 -224 -102 -45 -238 23 -313 159 -28 49 -71
162 -78 207 -3 16 -11 54 -17 84 -24 116 -18 330 13 455 34 138 70 234 168
455 231 523 300 749 295 975 -6 229 -105 437 -295 622 -63 61 -209 168 -218
160 -2 -3 9 -27 25 -54 50 -84 100 -196 117 -264 18 -67 24 -230 12 -306 -35
-222 -140 -394 -284 -465 -259 -127 -451 100 -386 457 15 84 20 110 23 110 1
0 3 7 5 15 5 25 47 141 76 211 25 62 56 159 65 202 2 10 5 26 8 35 29 103 26
331 -7 477 -31 135 -130 333 -235 471 -127 166 -285 313 -564 527 -234 180
-351 307 -419 459 -14 32 -28 60 -31 63 -3 3 -13 -21 -24 -52z m338 -6129 c-1
-5 -157 -164 -346 -354 -189 -190 -363 -372 -386 -404 -116 -160 -179 -347
-180 -537 l0 -66 -170 170 c-191 190 -178 161 -134 295 86 261 254 489 489
662 159 117 429 220 620 237 38 3 71 7 73 8 8 7 37 -3 34 -11z m451 -54 c128
-43 206 -82 322 -157 108 -71 276 -230 335 -318 18 -27 37 -52 40 -55 17 -12
110 -202 138 -280 27 -76 70 -251 70 -290 0 -8 2 -43 5 -77 3 -35 3 -63 0 -63
-3 0 -151 146 -329 324 -312 312 -432 427 -457 435 -7 2 -19 9 -27 16 -27 23
-114 67 -177 91 -90 34 -186 54 -282 59 -48 2 -88 5 -91 5 -12 0 336 340 349
340 7 0 54 -14 104 -30z m-260 -574 c113 -25 258 -108 344 -197 47 -48 103
-120 103 -132 0 -3 -30 6 -67 20 -183 66 -313 88 -533 88 -128 0 -263 -9 -279
-19 -3 -2 -24 -7 -45 -10 -69 -11 -177 -43 -244 -73 -19 -8 -36 -13 -38 -10
-8 8 59 93 122 154 93 90 238 165 349 180 22 3 42 7 45 10 6 6 205 -3 243 -11z
m-446 -468 c19 -24 21 -72 6 -110 -19 -49 -62 -79 -116 -83 -41 -3 -42 -4 -42
-39 -1 -54 28 -158 60 -211 52 -89 133 -157 230 -195 84 -33 234 -33 318 -1
57 22 141 82 184 130 43 49 85 142 97 214 12 71 6 179 -13 222 -13 29 -21 55
-17 55 27 0 238 -100 269 -128 16 -14 18 -30 16 -97 -9 -266 -165 -500 -413
-616 -35 -16 -73 -32 -85 -34 -11 -3 -31 -8 -43 -11 -306 -76 -643 83 -786
369 -24 48 -45 95 -48 107 -2 11 -6 30 -9 43 -2 12 -7 34 -11 50 -3 15 -7 57
-9 94 -3 62 -1 69 25 92 36 35 165 97 270 132 99 32 104 33 117 17z m1425
-362 c87 -88 158 -163 158 -167 0 -21 -56 -183 -87 -249 -87 -189 -273 -410
-444 -527 -163 -112 -357 -190 -539 -219 -19 -3 -45 -7 -57 -9 -21 -3 -120 -8
-135 -6 -4 1 148 155 336 344 189 188 366 373 394 410 109 146 181 348 185
519 2 73 4 85 16 75 8 -7 86 -84 173 -171z m-1697 -621 c137 -102 322 -169
507 -183 l98 -7 -169 -169 -169 -169 -89 27 c-121 38 -292 124 -388 195 -253
191 -426 442 -501 731 -28 107 -31 123 -40 235 l-6 80 348 -347 c192 -191 376
-368 409 -393z"/>
<path d="M4442 8918 c-7 -7 -12 -16 -12 -20 0 -8 -37 -65 -50 -78 -3 -3 -18
-23 -35 -45 -31 -42 -53 -67 -155 -175 -173 -183 -254 -367 -245 -555 5 -118
20 -171 78 -270 51 -88 146 -195 221 -250 15 -11 39 -29 52 -40 13 -12 38 -29
55 -39 l30 -18 -17 39 c-36 82 -74 195 -89 269 -16 76 -22 232 -11 284 3 14
11 50 17 80 6 30 42 150 80 265 37 116 71 225 74 244 3 19 7 37 9 40 14 22 25
265 13 277 -2 2 -9 -2 -15 -8z"/>
<path d="M7735 8175 c-107 -142 -177 -278 -229 -440 -45 -143 -60 -234 -71
-445 -8 -142 -9 -154 -30 -270 -21 -115 -70 -268 -115 -362 -15 -32 -23 -58
-18 -58 17 0 115 54 186 103 89 61 190 168 243 257 44 74 93 201 104 270 4 25
9 54 11 65 5 25 5 195 0 250 -8 78 -19 402 -19 553 0 83 -1 152 -3 152 -1 0
-28 -34 -59 -75z"/>
</g>
</svg>
